<svg width="745" height="658" viewBox="0 0 745 658" fill="none" xmlns="http://www.w3.org/2000/svg">
<g filter="url(#filter0_d_0_181)">
<path fill-rule="evenodd" clip-rule="evenodd" d="M330.695 581.013L125.169 441.697C107.491 429.714 107.629 410.286 125.477 398.303L332.98 258.987C350.828 247.004 379.627 247.004 397.305 258.987L602.831 398.303C620.509 410.286 620.371 429.714 602.524 441.697L395.02 581.013C377.172 592.996 348.373 592.996 330.695 581.013Z" fill="url(#paint0_linear_0_181)"/>
</g>
<g filter="url(#filter1_d_0_181)">
<path fill-rule="evenodd" clip-rule="evenodd" d="M331.838 509.013L125.322 369.697C107.559 357.714 107.559 338.286 125.322 326.303L331.838 186.987C349.6 175.004 378.4 175.004 396.162 186.987L602.678 326.303C620.441 338.286 620.441 357.714 602.678 369.697L396.162 509.013C378.4 520.996 349.6 520.996 331.838 509.013Z" fill="url(#paint1_linear_0_181)"/>
</g>
<g filter="url(#filter2_d_0_181)">
<path fill-rule="evenodd" clip-rule="evenodd" d="M330.838 437.013L124.322 297.697C106.559 285.714 106.559 266.286 124.322 254.303L330.838 114.987C348.6 103.004 377.4 103.004 395.162 114.987L601.678 254.303C619.441 266.286 619.441 285.714 601.678 297.697L395.162 437.013C377.4 448.996 348.6 448.996 330.838 437.013Z" fill="url(#paint2_linear_0_181)"/>
</g>
<rect opacity="0.01" x="297.634" y="21" width="162.129" height="102.528" fill="black"/>
<g clip-path="url(#clip0_0_181)">
<g clip-path="url(#clip1_0_181)">
<path d="M393.184 283.842C399.771 288.243 411.6 287.302 419.615 281.664C427.631 276.026 428.699 267.895 422.112 263.493C415.424 259.025 403.595 259.966 395.58 265.604C387.565 271.242 386.496 279.373 393.184 283.842ZM308.429 208.694C281.912 227.347 278.338 254.551 300.463 269.335C309.212 275.181 320.582 278.149 332.834 278.566L327.314 320.589C327.075 322.412 327.93 323.811 329.489 324.852C332.908 327.137 338.345 326.554 342.383 323.714C344.311 322.357 345.516 320.682 345.716 319.163L351.327 277.283C364.581 275.063 377.713 270.033 388.682 262.317C415.199 243.665 418.824 216.494 396.649 201.677C374.524 186.894 334.947 190.042 308.429 208.694ZM317.028 214.44C337.88 199.772 368.945 197.301 386.343 208.926C403.791 220.584 400.936 241.904 380.084 256.572C359.231 271.24 328.217 273.744 310.769 262.086C293.37 250.461 296.175 229.107 317.028 214.44ZM336.413 222.184L368.293 243.486C370.253 244.796 373.741 244.481 376.091 242.828C378.442 241.175 378.691 238.861 376.73 237.551L344.85 216.25C342.839 214.906 339.572 215.203 337.222 216.856C334.872 218.51 334.401 220.84 336.413 222.184ZM320.382 233.461L343.562 248.95C345.523 250.26 348.89 250.03 351.241 248.376C353.591 246.723 353.961 244.325 352 243.015L328.819 227.526C326.808 226.182 323.421 226.564 321.071 228.217C318.72 229.871 318.37 232.117 320.382 233.461ZM466.649 254.649L407.867 215.373L398.164 222.198L456.795 261.373C461.773 264.7 461.446 268.862 455.178 273.271L382.556 324.353C376.289 328.762 370.228 329.094 365.25 325.767L354.238 318.41C353.758 321.643 351.54 324.79 347.803 327.418L355.698 332.693C366.207 339.715 377.755 338.834 390.169 330.102L463.755 278.341C476.17 269.608 477.158 261.671 466.649 254.649ZM278.51 267.81C273.482 264.45 273.861 260.322 280.128 255.913L297.787 243.492L289.691 238.083L271.55 250.843C259.075 259.618 258.198 267.546 268.657 274.534L320.65 309.275L322.257 297.041L278.51 267.81Z" fill="url(#paint3_linear_0_181)" fill-opacity="0.85"/>
</g>
</g>
<defs>
<filter id="filter0_d_0_181" x="62" y="202" width="604" height="440" filterUnits="userSpaceOnUse" color-interpolation-filters="sRGB">
<feFlood flood-opacity="0" result="BackgroundImageFix"/>
<feColorMatrix in="SourceAlpha" type="matrix" values="0 0 0 0 0 0 0 0 0 0 0 0 0 0 0 0 0 0 127 0" result="hardAlpha"/>
<feOffset dy="2"/>
<feGaussianBlur stdDeviation="25"/>
<feColorMatrix type="matrix" values="0 0 0 0 0 0 0 0 0 0 0 0 0 0 0 0 0 0 0.126147 0"/>
<feBlend mode="normal" in2="BackgroundImageFix" result="effect1_dropShadow_0_181"/>
<feBlend mode="normal" in="SourceGraphic" in2="effect1_dropShadow_0_181" result="shape"/>
</filter>
<filter id="filter1_d_0_181" x="62" y="130" width="604" height="440" filterUnits="userSpaceOnUse" color-interpolation-filters="sRGB">
<feFlood flood-opacity="0" result="BackgroundImageFix"/>
<feColorMatrix in="SourceAlpha" type="matrix" values="0 0 0 0 0 0 0 0 0 0 0 0 0 0 0 0 0 0 127 0" result="hardAlpha"/>
<feOffset dy="2"/>
<feGaussianBlur stdDeviation="25"/>
<feColorMatrix type="matrix" values="0 0 0 0 0 0 0 0 0 0 0 0 0 0 0 0 0 0 0.126147 0"/>
<feBlend mode="normal" in2="BackgroundImageFix" result="effect1_dropShadow_0_181"/>
<feBlend mode="normal" in="SourceGraphic" in2="effect1_dropShadow_0_181" result="shape"/>
</filter>
<filter id="filter2_d_0_181" x="61" y="58" width="604" height="440" filterUnits="userSpaceOnUse" color-interpolation-filters="sRGB">
<feFlood flood-opacity="0" result="BackgroundImageFix"/>
<feColorMatrix in="SourceAlpha" type="matrix" values="0 0 0 0 0 0 0 0 0 0 0 0 0 0 0 0 0 0 127 0" result="hardAlpha"/>
<feOffset dy="2"/>
<feGaussianBlur stdDeviation="25"/>
<feColorMatrix type="matrix" values="0 0 0 0 0 0 0 0 0 0 0 0 0 0 0 0 0 0 0.126147 0"/>
<feBlend mode="normal" in2="BackgroundImageFix" result="effect1_dropShadow_0_181"/>
<feBlend mode="normal" in="SourceGraphic" in2="effect1_dropShadow_0_181" result="shape"/>
</filter>
<linearGradient id="paint0_linear_0_181" x1="112" y1="250" x2="112" y2="590" gradientUnits="userSpaceOnUse">
<stop stop-color="#7E99CD"/>
<stop offset="1" stop-color="#746AE5"/>
</linearGradient>
<linearGradient id="paint1_linear_0_181" x1="112" y1="178" x2="112" y2="518" gradientUnits="userSpaceOnUse">
<stop stop-color="#7FB87E"/>
<stop offset="1" stop-color="#6ABFEE"/>
</linearGradient>
<linearGradient id="paint2_linear_0_181" x1="111" y1="106" x2="111" y2="446" gradientUnits="userSpaceOnUse">
<stop stop-color="#F5B4AB"/>
<stop offset="1" stop-color="#FFF9F5"/>
</linearGradient>
<linearGradient id="paint3_linear_0_181" x1="421.74" y1="218.442" x2="344.111" y2="334.622" gradientUnits="userSpaceOnUse">
<stop stop-color="#C24DB7"/>
<stop offset="1" stop-color="#5A76D7" stop-opacity="0.73"/>
</linearGradient>
<clipPath id="clip0_0_181">
<rect width="197.007" height="165.337" fill="white" transform="matrix(0.83147 0.55557 -0.707107 0.707107 340.911 159)"/>
</clipPath>
<clipPath id="clip1_0_181">
<rect width="156.874" height="147.99" fill="white" transform="matrix(0.83147 0.55557 -0.845827 0.594964 359.174 173)"/>
</clipPath>
</defs>
</svg>
